# AST/ASF file generated using VICON BodyLanguage
# -----------------------------------------------
:version 1.10
:name VICON
:units
  mass 1.0
  length 0.45
  angle deg
:documentation
   .ast/.asf automatically generated from VICON data using
   VICON BodyBuilder and BodyLanguage model FoxedUp or BRILLIANT.MOD
:root
   order TX TY TZ RX RY RZ
   axis XYZ
   position 0 0 0  
   orientation 0 0 0 
:bonedata
  begin
     id 1 
     name lhipjoint
     direction 0.627457 -0.725269 0.283342 
     length 2.53237 
     axis 0 0 0  XYZ
  end
  begin
     id 2 
     name lfemur
     direction 0.34202 -0.939693 0  
     length 7.32496  
     axis 0 0 20  XYZ
    dof rx ry rz
    limits (-160.0 20.0)
           (-70.0 70.0)
           (-60.0 70.0)
  end
  begin
     id 3 
     name ltibia
     direction 0.34202 -0.939693 0   
     length 7.69674   
     axis 0 0 20   XYZ
    dof rx
    limits (-10.0 170.0)
  end
  begin
     id 4 
     name lfoot
     direction 0.127289 -0.349722 0.928166   
     length 1.8612   
     axis -90 7.62852e-016 20   XYZ
    dof rx rz
    limits (-45.0 90.0)
           (-70.0 20.0)
  end
  begin
     id 5 
     name ltoes
     direction 1.53561e-011 -4.21864e-011 1   
     length 0.925608   
     axis -90 7.62852e-016 20   XYZ
    dof rx
    limits (-90.0 20.0)
  end
  begin
     id 6 
     name rhipjoint
     direction -0.609094 -0.738725 0.288599   
     length 2.48624  
     axis 0 0 0  XYZ 
  end
  begin
     id 7 
     name rfemur
     direction -0.34202 -0.939693 0   
     length 7.44259   
     axis 0 0 -20   XYZ
    dof rx ry rz
    limits (-160.0 20.0)
           (-70.0 70.0)
           (-70.0 60.0)
  end
  begin
     id 8 
     name rtibia
     direction -0.34202 -0.939693 0   
     length 7.7781   
     axis 0 0 -20   XYZ
    dof rx
    limits (-10.0 170.0)
 end
 begin
     id 9 
     name rfoot
     direction -0.107015 -0.294021 0.949789   
     length 2.14741  
     axis -90 -7.62852e-016 -20   XYZ
    dof rx rz
    limits (-45.0 90.0)
           (-20.0 70.0)
  end
  begin
     id 10 
     name rtoes
     direction -1.53497e-011 -4.21924e-011 1   
     length 1.0706   
     axis -90 -7.62852e-016 -20   XYZ
    dof rx
    limits (-90.0 20.0)
  end
  begin
     id 11 
     name lowerback
     direction -0.0142066 0.998112 -0.0597545   
     length 1.86627   
     axis 0 0 0   XYZ
    dof rx ry rz
    limits (-20.0 45.0)
           (-30.0 30.0)
           (-30.0 30.0)
  end
  begin
     id 12 
     name upperback
     direction 0.00547294 0.999744 0.0219437   
     length 1.86272   
     axis 0 0 0   XYZ
    dof rx ry rz
    limits (-20.0 45.0)
           (-30.0 30.0)
           (-30.0 30.0)
  end
  begin
     id 13 
     name thorax
     direction 0.0116162 0.998704 0.0495538   
     length 1.8703   
     axis 0 0 0   XYZ
    dof rx ry rz
    limits (-20.0 45.0)
           (-30.0 30.0)
           (-30.0 30.0)
  end
  begin
     id 14 
     name lowerneck
     direction -0.0106574 0.998739 0.0490586   
     length 1.8074   
     axis 0 0 0   XYZ
    dof rx ry rz
    limits (-20.0 45.0)
           (-30.0 30.0)
           (-30.0 30.0)
  end
  begin
     id 15 
     name upperneck
     direction 0.030527 0.976587 -0.212944   
     length 1.80681   
     axis 0 0 0   XYZ
    dof rx ry rz
    limits (-20.0 45.0)
           (-30.0 30.0)
           (-30.0 30.0)
  end
  begin
     id 16
     name head
     direction 0.00869225 0.997035 -0.0764531  
     length 1.8313  
     axis 0 0 0   XYZ
    dof rx ry rz
    limits (-20.0 45.0)
           (-30.0 30.0)
           (-30.0 30.0)
  end
  begin
     id 17 
     name lclavicle
     direction 0.915958 0.399447 0.0382386  
     length 3.78965  
     axis 0 0 0   XYZ
    dof ry rz
    limits (-20.0 10.0)
           (0.0 20.0)
  end
  begin
     id 18 
     name lhumerus
     direction 1 -4.48967e-011 3.19303e-027   
     length 4.78095   
     axis -180 -30 -90   XYZ
    dof rx ry rz
    limits (-60.0 90.0)
           (-90.0 90.0)
           (-90.0 90.0)
  end
  begin
     id 19
     name lradius
     direction 1 -4.48967e-011 -3.77974e-027   
     length 3.58615   
     axis -180 -30 -90   XYZ
    dof rx
    limits (-10.0 170.0)
  end
  begin
     id 20
     name lwrist
     direction 1 -4.48927e-011 1.2807e-027   
     length 1.79307   
     axis 1.91374e-015 90 90   XYZ
    dof ry
    limits (-180.0 0.0)
 end
  begin
     id 21 
     name lhand
     direction 1 -4.49036e-011 2.5614e-027   
     length 0.659812   
     axis -1.63439e-015 90 90   XYZ
    dof rx rz
    limits (-90.0 90.0)
           (-45.0 45.0)
  end
  begin
     id 22 
     name lfingers
     direction 1 -4.49052e-011 5.1228e-027   
     length 0.531957   
     axis -3.26879e-015 90 90   XYZ
    dof rx
    limits (0.0 90.0)
  end
  begin
     id 23
     name lthumb
     direction 0.707107 -6.35012e-011 0.707107   
     length 0.763787   
     axis -90 45 2.85299e-015   XYZ
    dof rx rz
    limits (-45.0 45.0)
           (-45.0 45.0)
  end
  begin
     id 24 
     name rclavicle
     direction -0.895351 0.435135 0.0948887   
     length 3.70497  
     axis 0 0 0   XYZ 
    dof ry rz
    limits (-10.0 20.0)
           (-20.0 0.0)
  end
  begin
     id 25 
     name rhumerus
     direction -1 -4.48971e-011 2.38946e-027  
     length 4.48913   
     axis -180 30 90   XYZ
    dof rx ry rz
    limits (-90.0 60.0)
           (-90.0 90.0)
           (-90.0 90.0)
  end
  begin
     id 26 
     name rradius
     direction -1 -4.4895e-011 4.38668e-027   
     length 3.7051   
     axis -180 30 90   XYZ
    dof rx
    limits (-10.0 170.0)
  end
  begin
     id 27 
     name rwrist
     direction -1 -4.49007e-011 1.2807e-027   
     length 1.85255   
     axis 1.91374e-015 -90 -90   XYZ
    dof ry
    limits (-180.0 0.0)
  end
  begin
     id 28
     name rhand
     direction -1 -4.48851e-011 2.5614e-027   
     length 0.449136   
     axis -1.63439e-015 -90 -90   XYZ
    dof rx rz
    limits (-90.0 90.0)
           (-45.0 45.0)
  end
  begin
     id 29
     name rfingers
     direction -1 -4.49128e-011 5.1228e-027   
     length 0.362105   
     axis -3.26879e-015 -90 -90   XYZ
    dof rx
    limits (0.0 90.0)
  end
  begin
     id 30
     name rthumb
     direction -0.707107 -6.34851e-011 0.707107   
     length 0.519912   
     axis -90 -45 -2.85299e-015   XYZ
    dof rx rz
    limits (-45.0 45.0)
           (-45.0 45.0)
  end
:hierarchy
  begin
    root lhipjoint rhipjoint lowerback
    lhipjoint lfemur
    lfemur ltibia
    ltibia lfoot
    lfoot ltoes
    rhipjoint rfemur
    rfemur rtibia
    rtibia rfoot
    rfoot rtoes
    lowerback upperback
    upperback thorax
    thorax lowerneck lclavicle rclavicle
    lowerneck upperneck
    upperneck head
    lclavicle lhumerus
    lhumerus lradius
    lradius lwrist
    lwrist lhand lthumb
    lhand lfingers
    rclavicle rhumerus
    rhumerus rradius
    rradius rwrist
    rwrist rhand rthumb
    rhand rfingers
  end

#!OML:ASF I:\Actors\actors\Patient Classification 2\Patient 1\Session 1\actor1.ASF
:FULLY-SPECIFIED
:DEGREES
55
root -0.608623 18.6142 6.01169 -0.316903 -2.94737 -2.74135
lowerback 2.39647 0.80605 0.44732
upperback -1.8204 1.10717 0.480218
thorax -3.21455 0.547354 0.185816
lowerneck -8.10337 4.59798 3.88204
upperneck 24.0367 5.10945 2.838
head 8.87834 3.04305 0.819012
rclavicle 1.36292e-014 9.93923e-016
rhumerus -48.8596 -4.27133 -86.7239
rradius 40.8629
rwrist 20.1433
rhand -2.5617 -37.1763
rfingers 7.12502
rthumb 23.1346 -65.8072
lclavicle 1.36292e-014 9.93923e-016
lhumerus -42.9428 3.34141 90.0501
lradius 35.1361
lwrist -0.068713
lhand -7.97859 -22.9483
lfingers 7.12502
lthumb 17.9294 6.24524
rfemur 9.38061 2.88893 16.4073
rtibia -3.33958e-014
rfoot -16.3111 -8.7356
rtoes -6.60653
lfemur -2.4664 -4.55442 -12.214
ltibia 23.265
lfoot -24.0971 13.2357
ltoes -55.7556
56
root -0.60862 18.614 6.01179 -0.328354 -2.95259 -2.77643
lowerback 2.40834 0.803782 0.485299
upperback -1.82627 1.10626 0.49746
thorax -3.22694 0.546217 0.182075
lowerneck -8.13776 4.59946 3.78208
upperneck 24.107 5.10016 2.94867
head 8.90246 3.04213 0.874349
rclavicle 9.81499e-015 -3.77691e-015
rhumerus -48.8548 -4.2474 -86.7162
rradius 40.839
rwrist 20.1452
rhand -2.5095 -37.1984
rfingers 7.12502
rthumb 23.1846 -65.8231
lclavicle 9.81499e-015 -3.77691e-015
lhumerus -42.9955 3.3464 90.0515
lradius 35.2113
lwrist -0.0743527
lhand -7.96417 -23.0098
lfingers 7.12502
lthumb 17.9433 6.18251
rfemur 9.39633 2.89465 16.4447
rtibia -4.6118e-014
rfoot -16.3168 -8.71061
rtoes -6.60685
lfemur -2.44759 -4.51611 -12.1736
ltibia 23.2633
lfoot -24.0733 13.2278
ltoes -55.7545
57
root -0.608537 18.6142 6.01182 -0.332577 -2.96076 -2.77428
lowerback 2.40725 0.804322 0.483203
upperback -1.83263 1.10713 0.503599
thorax -3.23305 0.546752 0.189474
lowerneck -8.12715 4.60071 3.74705
upperneck 24.1276 5.09852 2.99003
head 8.90521 3.04275 0.894042
rclavicle 1.95927e-014 -1.19271e-015
rhumerus -48.88 -4.24135 -86.7106
rradius 40.8572
rwrist 20.1457
rhand -2.45862 -37.2245
rfingers 7.12502
rthumb 23.2335 -65.843
lclavicle 1.95927e-014 -1.19271e-015
lhumerus -43.0225 3.32913 90.0674
lradius 35.2258
lwrist -0.0440015
lhand -7.98978 -23.0204
lfingers 7.12502
lthumb 17.9187 6.17416
rfemur 9.39984 2.90312 16.4422
rtibia 6.36111e-015
rfoot -16.3143 -8.68283
rtoes -6.42516
lfemur -2.44049 -4.54657 -12.1832
ltibia 23.266
lfoot -24.0872 13.2457
ltoes -55.6896
58
root -0.608867 18.6143 6.01186 -0.333003 -2.96964 -2.7572
lowerback 2.40198 0.802518 0.461561
upperback -1.84034 1.1039 0.503598
thorax -3.23843 0.545621 0.201775
lowerneck -8.09487 4.60768 3.7435
upperneck 24.118 5.10843 2.99962
head 8.89552 3.04791 0.89771
rclavicle -6.90777e-015 -1.17283e-014
rhumerus -48.9142 -4.26666 -86.6987
rradius 40.8931
rwrist 20.1786
rhand -2.39517 -37.2109
rfingers 7.12502
rthumb 23.2943 -65.8217
lclavicle -6.90777e-015 -1.17283e-014
lhumerus -43.019 3.36434 90.0531
lradius 35.1852
lwrist -0.0517483
lhand -8.03786 -23.0821
lfingers 7.12502
lthumb 17.8724 6.11666
rfemur 9.39841 2.91191 16.4269
rtibia 1.27222e-014
rfoot -16.295 -8.7061
rtoes -6.46379
lfemur -2.44292 -4.57914 -12.2062
ltibia 23.2751
lfoot -24.1076 13.2614
ltoes -55.6546
59
root -0.609212 18.6147 6.01157 -0.333006 -2.97485 -2.77003
lowerback 2.40939 0.803201 0.471447
upperback -1.85209 1.10554 0.510022
thorax -3.2547 0.546251 0.202541
lowerneck -8.06064 4.61116 3.75294
upperneck 24.111 5.11511 2.9931
head 8.88726 3.05109 0.893491
rclavicle 2.79789e-014 -3.57812e-015
rhumerus -48.9448 -4.31478 -86.6757
rradius 40.9078
rwrist 20.208
rhand -2.38272 -37.1674
rfingers 7.12502
rthumb 23.3063 -65.7767
lclavicle 2.79789e-014 -3.57812e-015
lhumerus -43.018 3.3136 90.0763
lradius 35.1662
lwrist 0.0203496
lhand -8.09861 -23.1103
lfingers 7.12502
lthumb 17.814 6.09373
rfemur 9.39498 2.9168 16.4431
rtibia -2.06736e-014
rfoot -16.2718 -8.75144
rtoes -6.71777
lfemur -2.44633 -4.5772 -12.1897
ltibia 23.2811
lfoot -24.0999 13.2676
ltoes -55.664
60
root -0.609583 18.6152 6.01117 -0.337337 -2.97741 -2.7917
lowerback 2.41781 0.807778 0.489181
upperback -1.86159 1.11281 0.520534
thorax -3.26915 0.549555 0.202823
lowerneck -8.02285 4.60599 3.76485
upperneck 24.1029 5.11163 2.97739
head 8.87826 3.04878 0.884617
rclavicle 9.26834e-015 -3.18055e-015
rhumerus -48.9747 -4.37635 -86.6369
rradius 40.901
rwrist 20.245
rhand -2.41431 -37.0681
rfingers 7.12502
rthumb 23.276 -65.6812
lclavicle 9.26834e-015 -3.18055e-015
lhumerus -43.034 3.22329 90.1211
lradius 35.181
lwrist 0.125669
lhand -8.10321 -23.0904
lfingers 7.12502
lthumb 17.8095 6.11406
rfemur 9.39581 2.91929 16.4683
rtibia -1.43125e-014
rfoot -16.2698 -8.7593
rtoes -6.77825
lfemur -2.4467 -4.56075 -12.1591
ltibia 23.285
lfoot -24.1137 13.2537
ltoes -55.6579
61
root -0.6104 18.6148 6.01041 -0.338943 -2.98094 -2.80104
lowerback 2.41597 0.806158 0.490319
upperback -1.86239 1.11093 0.528745
thorax -3.26907 0.548692 0.210743
lowerneck -8.01506 4.60707 3.74168
upperneck 24.1057 5.11176 3.00174
head 8.87626 3.0493 0.896471
rclavicle -2.79541e-015 1.05356e-014
rhumerus -48.9712 -4.40596 -86.6191
rradius 40.8778
rwrist 20.2958
rhand -2.39926 -36.9744
rfingers 7.12502
rthumb 23.2904 -65.5856
lclavicle -2.79541e-015 1.05356e-014
lhumerus -43.0428 3.22748 90.126
lradius 35.1971
lwrist 0.145006
lhand -8.10324 -23.061
lfingers 7.12502
lthumb 17.8095 6.1435
rfemur 9.39747 2.92281 16.4786
rtibia 1.11319e-014
rfoot -16.2913 -8.71455
rtoes -6.69415
lfemur -2.45319 -4.50994 -12.1367
ltibia 23.2922
lfoot -24.0986 13.2163
ltoes -55.6768
62
root -0.611059 18.6141 6.00916 -0.337197 -2.9873 -2.80034
lowerback 2.41411 0.806855 0.493293
upperback -1.8646 1.11174 0.520971
thorax -3.27009 0.548929 0.201057
lowerneck -8.02194 4.61198 3.7435
upperneck 24.1204 5.10867 3.03983
head 8.88172 3.05209 0.909245
rclavicle -1.6524e-015 -7.95139e-015
rhumerus -48.9561 -4.36097 -86.6557
rradius 40.8747
rwrist 20.2349
rhand -2.32056 -36.989
rfingers 7.12502
rthumb 23.3659 -65.5907
lclavicle -1.6524e-015 -7.95139e-015
lhumerus -43.0485 3.31286 90.068
lradius 35.1977
lwrist 0.0538478
lhand -8.06844 -23.018
lfingers 7.12502
lthumb 17.843 6.18342
rfemur 9.39782 2.92907 16.4777
rtibia 7.95139e-015
rfoot -16.327 -8.67085
rtoes -6.46223
lfemur -2.46224 -4.46966 -12.1304
ltibia 23.3019
lfoot -24.0703 13.1933
ltoes -55.6934
63
root -0.61138 18.6141 6.00818 -0.34205 -2.98267 -2.79972
lowerback 2.42157 0.808656 0.501046
upperback -1.86728 1.11414 0.507923
thorax -3.27666 0.549769 0.183044
lowerneck -8.0414 4.61793 3.79921
upperneck 24.136 5.11083 3.01969
head 8.89343 3.05622 0.89447
rclavicle 2.45996e-015 -9.93923e-015
rhumerus -48.9594 -4.31925 -86.6966
rradius 40.8968
rwrist 20.1316
rhand -2.26459 -37.0236
rfingers 7.12502
rthumb 23.4196 -65.6185
lclavicle 2.45996e-015 -9.93923e-015
lhumerus -43.059 3.39922 89.9947
lradius 35.1961
lwrist -0.0586101
lhand -8.00004 -23.0004
lfingers 7.12502
lthumb 17.9088 6.19499
rfemur 9.40524 2.92445 16.4814
rtibia -7.95139e-015
rfoot -16.3342 -8.69103
rtoes -6.29895
lfemur -2.45988 -4.52512 -12.1373
ltibia 23.3064
lfoot -24.1013 13.2254
ltoes -55.6639
64
root -0.61184 18.6141 6.00724 -0.342225 -2.97317 -2.81098
lowerback 2.42998 0.799595 0.510499
upperback -1.86686 1.10263 0.512818
thorax -3.28089 0.543867 0.183255
lowerneck -8.05356 4.62909 3.83819
upperneck 24.1276 5.13401 2.95717
head 8.89595 3.06405 0.869497
rclavicle 8.65956e-015 -5.36719e-015
rhumerus -48.9455 -4.31458 -86.7132
rradius 40.8908
rwrist 20.1156
rhand -2.31661 -36.9949
rfingers 7.12502
rthumb 23.3697 -65.5961
lclavicle 8.65956e-015 -5.36719e-015
lhumerus -43.0559 3.36737 90.0092
lradius 35.1873
lwrist -0.0285954
lhand -8.02236 -22.9862
lfingers 7.12502
lthumb 17.8873 6.21123
rfemur 9.40357 2.91456 16.4974
rtibia -1.27222e-014
rfoot -16.3328 -8.70441
rtoes -6.19065
lfemur -2.46275 -4.58274 -12.13
ltibia 23.3048
lfoot -24.1256 13.2569
ltoes -55.6175
65
root -0.611903 18.6137 6.00651 -0.335045 -2.96638 -2.81244
lowerback 2.4234 0.788681 0.510742
upperback -1.86739 1.08825 0.520659
thorax -3.27787 0.536802 0.192022
lowerneck -8.01322 4.63636 3.8656
upperneck 24.0771 5.15398 2.90714
head 8.87335 3.07001 0.847836
rclavicle 1.21507e-014 -5.76476e-015
rhumerus -48.9359 -4.22239 -86.7549
rradius 40.9022
rwrist 20.0294
rhand -2.35048 -37.0335
rfingers 7.12502
rthumb 23.3372 -65.6388
lclavicle 1.21507e-014 -5.76476e-015
lhumerus -43.054 3.29791 90.0591
lradius 35.1763
lwrist 0.0480779
lhand -8.07146 -22.9551
lfingers 7.12502
lthumb 17.8401 6.2466
rfemur 9.39324 2.90743 16.497
rtibia 1.59028e-015
rfoot -16.3332 -8.68723
rtoes -6.1597
lfemur -2.47303 -4.56809 -12.1256
ltibia 23.3004
lfoot -24.1137 13.234
ltoes -55.5971
66
root -0.611322 18.6139 6.00599 -0.332387 -2.95517 -2.81267
lowerback 2.41677 0.7877 0.521969
upperback -1.86902 1.08715 0.514582
thorax -3.27549 0.535924 0.179634
lowerneck -7.98427 4.63527 3.90709
upperneck 24.0519 5.14952 2.89661
head 8.86109 3.07015 0.835639
rclavicle -2.21148e-015 -1.98785e-016
rhumerus -48.971 -4.09875 -86.8266
rradius 40.968
rwrist 19.87
rhand -2.30878 -37.145
rfingers 7.12502
rthumb 23.3772 -65.7453
lclavicle -2.21148e-015 -1.98785e-016
lhumerus -43.0596 3.30198 90.0552
lradius 35.1762
lwrist 0.0299235
lhand -8.07586 -22.9305
lfingers 7.12502
lthumb 17.8358 6.27162
rfemur 9.39413 2.89652 16.4915
rtibia 0
rfoot -16.3333 -8.66177
rtoes -6.29952
lfemur -2.47787 -4.56443 -12.125
ltibia 23.2953
lfoot -24.095 13.2198
ltoes -55.6279
67
root -0.610751 18.614 6.00498 -0.338423 -2.95815 -2.83211
lowerback 2.42557 0.792805 0.557731
upperback -1.86763 1.09526 0.509253
thorax -3.27825 0.53907 0.153586
lowerneck -8.01901 4.63582 3.90532
upperneck 24.0913 5.13768 2.94105
head 8.87996 3.06953 0.851615
rclavicle 9.10682e-015 -1.35174e-014
rhumerus -48.9822 -4.13151 -86.8243
rradius 40.9729
rwrist 19.888
rhand -2.28337 -37.1422
rfingers 7.12502
rthumb 23.4016 -65.7393
lclavicle 9.10682e-015 -1.35174e-014
lhumerus -43.0551 3.31376 90.0405
lradius 35.1651
lwrist 0.00300891
lhand -8.05879 -22.9135
lfingers 7.12502
lthumb 17.8523 6.28708
rfemur 9.4014 2.90003 16.5086
rtibia 2.38542e-014
rfoot -16.3375 -8.63317
rtoes -6.25149
lfemur -2.47263 -4.58396 -12.1079
ltibia 23.292
lfoot -24.1029 13.2291
ltoes -55.6185
68
root -0.610482 18.6136 6.00373 -0.344662 -2.96695 -2.83169
lowerback 2.42683 0.790014 0.565344
upperback -1.86316 1.09175 0.507382
thorax -3.27418 0.537134 0.147601
lowerneck -8.03286 4.64622 3.89388
upperneck 24.1117 5.14736 2.9657
head 8.88858 3.07584 0.863643
rclavicle -1.40889e-014 -1.27222e-014
rhumerus -48.955 -4.25862 -86.7558
rradius 40.9189
rwrist 20.0539
rhand -2.21293 -37.0534
rfingers 7.12502
rthumb 23.4692 -65.6419
lclavicle -1.40889e-014 -1.27222e-014
lhumerus -43.0567 3.29602 90.0449
lradius 35.1659
lwrist 0.0557466
lhand -8.01658 -22.9123
lfingers 7.12502
lthumb 17.8929 6.28455
rfemur 9.39942 2.90937 16.5059
rtibia 2.22639e-014
rfoot -16.3297 -8.63279
rtoes -6.1115
lfemur -2.47071 -4.55732 -12.1047
ltibia 23.2925
lfoot -24.1108 13.1922
ltoes -55.549
69
root -0.610716 18.6131 6.00267 -0.342795 -2.96698 -2.81684
lowerback 2.41548 0.783574 0.548531
upperback -1.86327 1.08227 0.503291
thorax -3.26811 0.532763 0.153478
lowerneck -7.99952 4.65218 3.90993
upperneck 24.0944 5.15763 2.95392
head 8.87733 3.08057 0.856713
rclavicle 8.28684e-015 1.51076e-014
rhumerus -48.9449 -4.33284 -86.7274
rradius 40.9031
rwrist 20.1348
rhand -2.10776 -37.0439
rfingers 7.12502
rthumb 23.57 -65.6195
lclavicle 8.28684e-015 1.51076e-014
lhumerus -43.1058 3.30309 90.0309
lradius 35.2262
lwrist 0.068761
lhand -7.98505 -22.9545
lfingers 7.12502
lthumb 17.9232 6.23964
rfemur 9.38852 2.90939 16.4896
rtibia -3.81667e-014
rfoot -16.3296 -8.63884
rtoes -6.22294
lfemur -2.48198 -4.50087 -12.1096
ltibia 23.2987
lfoot -24.0981 13.149
ltoes -55.5514
